<?xml version="1.0" standalone="no"?>
<!DOCTYPE svg PUBLIC "-//W3C//DTD SVG 20010904//EN"
 "http://www.w3.org/TR/2001/REC-SVG-20010904/DTD/svg10.dtd">
<svg version="1.0" xmlns="http://www.w3.org/2000/svg"
 width="489.000000pt" height="489.000000pt" viewBox="0 0 489.000000 489.000000"
 preserveAspectRatio="xMidYMid meet">
<metadata>
Created by potrace 1.14, written by Peter Selinger 2001-2017
</metadata>
<g transform="translate(0.000000,489.000000) scale(0.100000,-0.100000)"
fill="#000000" stroke="none">
<path d="M2687 4075 c-32 -11 -84 -58 -75 -67 2 -2 -7 -16 -18 -33 -19 -26
-213 -360 -282 -485 -14 -25 -42 -73 -63 -107 -21 -35 -40 -72 -44 -83 -3 -11
-11 -20 -16 -20 -5 0 -9 -7 -9 -15 0 -8 -4 -15 -10 -15 -5 0 -9 -4 -7 -8 1 -4
-22 -48 -50 -97 -29 -48 -53 -92 -53 -97 0 -4 -4 -8 -10 -8 -5 0 -10 -7 -10
-15 0 -8 -8 -24 -17 -35 -10 -11 -18 -24 -18 -28 -1 -9 -26 -55 -34 -62 -3 -3
-17 -26 -31 -52 -13 -27 -29 -48 -34 -48 -5 0 -6 -3 -3 -6 4 -4 -2 -19 -13
-34 -11 -16 -20 -33 -20 -39 0 -6 -4 -11 -10 -11 -5 0 -10 -5 -10 -11 0 -6
-19 -43 -41 -82 -134 -231 -654 -1116 -670 -1139 -10 -15 -19 -29 -19 -32 0
-3 -25 -46 -55 -96 -90 -149 -107 -186 -100 -228 3 -20 13 -47 21 -60 18 -28
71 -52 112 -52 68 0 78 15 452 653 197 334 360 610 363 614 4 3 10 -3 14 -13
3 -10 9 -21 12 -24 6 -5 19 -28 72 -130 13 -25 27 -47 30 -50 3 -3 21 -34 40
-70 19 -36 36 -67 39 -70 3 -3 10 -14 16 -25 6 -11 43 -77 82 -146 40 -70 72
-132 72 -137 0 -6 4 -12 8 -14 8 -3 48 -71 96 -163 12 -22 24 -41 29 -43 4 -2
7 -10 7 -18 0 -8 4 -14 8 -14 4 0 13 -12 19 -27 7 -16 25 -50 41 -78 16 -27
42 -72 57 -100 15 -27 32 -56 38 -63 5 -6 7 -12 4 -12 -11 0 38 -47 63 -60 50
-26 134 -4 164 43 37 58 26 106 -60 252 -23 39 -53 90 -66 115 -29 52 -98 173
-140 245 -16 28 -34 62 -41 78 -6 15 -15 27 -19 27 -4 0 -8 4 -8 9 0 6 -16 37
-35 70 -20 33 -34 62 -33 64 2 1 -3 9 -10 17 -21 24 -80 128 -76 133 3 2 -2
10 -11 17 -8 7 -15 19 -15 26 0 8 -4 14 -10 14 -5 0 -10 5 -10 10 0 9 -30 64
-103 190 -36 62 -46 83 -42 89 2 4 317 6 702 5 642 -1 701 1 740 17 23 9 48
28 57 41 19 29 29 98 14 98 -6 0 -8 3 -5 6 6 6 -19 60 -33 74 -3 3 -12 19 -20
35 -8 17 -17 32 -20 35 -3 3 -12 19 -20 35 -8 17 -17 32 -20 35 -5 5 -25 41
-57 100 -10 19 -20 37 -23 40 -3 3 -14 22 -25 43 -11 20 -23 37 -28 37 -4 0
-6 4 -3 9 4 5 3 11 -1 13 -5 1 -21 28 -37 58 -16 30 -35 62 -42 71 -8 9 -11
19 -7 22 3 4 2 7 -4 7 -6 0 -16 12 -22 28 -6 15 -20 41 -31 57 -11 17 -23 36
-26 43 -4 8 -29 50 -55 95 -27 45 -49 88 -49 95 0 6 -4 12 -10 12 -5 0 -10 7
-10 15 0 8 -4 15 -10 15 -5 0 -10 4 -10 9 0 6 -28 59 -63 119 -35 60 -67 115
-70 123 -4 8 -17 30 -28 49 -12 19 -31 53 -42 75 -12 22 -24 42 -27 45 -3 3
-16 22 -30 42 -22 34 -39 45 -90 61 -9 3 -33 -1 -53 -8z m111 -485 c34 -60 62
-114 62 -120 0 -5 4 -10 9 -10 5 0 14 -12 20 -27 16 -38 44 -87 54 -91 4 -2 7
-8 7 -13 0 -5 11 -26 23 -47 13 -20 41 -68 62 -107 21 -38 45 -76 52 -83 7 -7
13 -18 13 -23 0 -6 15 -34 34 -64 19 -29 32 -56 29 -59 -4 -3 -1 -6 6 -6 7 0
9 -4 6 -10 -3 -5 -2 -10 3 -10 5 0 15 -13 22 -30 7 -16 16 -30 21 -30 5 0 9
-9 9 -20 0 -11 4 -20 9 -20 5 0 11 -8 15 -17 6 -19 30 -63 58 -106 l16 -24
-591 0 c-326 0 -595 1 -599 3 -8 5 14 54 25 54 4 0 7 4 7 9 0 5 23 49 51 98
28 48 60 103 70 121 11 17 29 49 41 70 12 20 33 57 47 82 13 25 30 48 35 52 6
4 7 8 2 8 -5 0 -3 8 5 18 8 9 25 37 38 62 13 25 30 52 38 61 7 9 10 19 6 22
-3 4 -1 7 5 7 7 0 12 6 12 14 0 8 3 16 8 18 7 3 43 66 66 115 6 13 15 23 19
23 5 0 5 5 2 10 -3 6 -2 10 2 10 5 0 17 17 28 38 10 20 26 45 35 56 8 10 13
20 12 23 -4 5 30 53 38 53 3 0 33 -50 68 -110z"/>
</g>
</svg>
